<svg viewBox="0 0 15 19" fill="none" xmlns="http://www.w3.org/2000/svg">
<path d="M1.71799 2.09204L2.60899 2.54603L1.71799 2.09204ZM2.5918 1.21799L3.04579 2.10899L2.5918 1.21799ZM5.9221 16.0519L5.3674 15.2198L5.9221 16.0519ZM3.76367 17.2455L3.89556 18.2368L3.76367 17.2455ZM1.70412 16.1432L0.806178 16.5833V16.5833L1.70412 16.1432ZM9.07732 16.0519L9.63202 15.2199L9.07732 16.0519ZM8.16602 15.5181L8.49926 14.5752L8.16602 15.5181ZM6.83318 15.5181L7.16642 16.4609L6.83318 15.5181ZM13.2959 16.1432L14.1938 16.5833V16.5833L13.2959 16.1432ZM11.2366 17.2455L11.1047 18.2368L11.2366 17.2455ZM13.2822 2.09204L12.3912 2.54603V2.54603L13.2822 2.09204ZM12.4078 1.21799L12.8618 0.32698V0.32698L12.4078 1.21799ZM12.5 4.19995V13.6851H14.5V4.19995H12.5ZM2.5 13.6851V4.19995H0.5V13.6851H2.5ZM4.7002 2H10.3002V0H4.7002V2ZM2.5 4.19995C2.5 3.6234 2.50078 3.25114 2.52393 2.96783C2.54612 2.6962 2.5838 2.59549 2.60899 2.54603L0.82698 1.63805C0.634191 2.01642 0.562872 2.40961 0.53057 2.80495C0.499222 3.18861 0.5 3.6564 0.5 4.19995H2.5ZM4.7002 0C4.15663 0 3.68874 -0.000777125 3.30498 0.0305674C2.90962 0.0628601 2.51624 0.134156 2.13781 0.32698L3.04579 2.10899C3.09517 2.08383 3.19595 2.04613 3.4678 2.02393C3.75126 2.00078 4.12365 2 4.7002 2V0ZM2.60899 2.54603C2.705 2.35761 2.85788 2.20474 3.04579 2.10899L2.13781 0.32698C1.57306 0.614732 1.11447 1.07382 0.82698 1.63805L2.60899 2.54603ZM5.3674 15.2198C4.78963 15.605 4.39678 15.8663 4.09108 16.0426C3.77764 16.2233 3.66072 16.2504 3.63178 16.2542L3.89556 18.2368C4.32636 18.1795 4.72242 17.9872 5.09014 17.7752C5.4656 17.5587 5.9221 17.2537 6.4768 16.8839L5.3674 15.2198ZM0.5 13.6851C0.5 14.3518 0.499495 14.9008 0.527623 15.3333C0.55517 15.7569 0.614902 16.1931 0.806178 16.5833L2.60206 15.7031C2.58922 15.6769 2.54689 15.5646 2.52341 15.2035C2.5005 14.8513 2.5 14.3795 2.5 13.6851H0.5ZM3.63178 16.2542C3.20579 16.3109 2.79125 16.0891 2.60206 15.7031L0.806178 16.5833C1.37365 17.7411 2.61736 18.4068 3.89556 18.2368L3.63178 16.2542ZM9.63202 15.2199C9.22656 14.9496 8.88045 14.71 8.49926 14.5752L7.83277 16.4609C7.92213 16.4925 8.02671 16.5534 8.52262 16.884L9.63202 15.2199ZM6.4768 16.8839C6.97295 16.5532 7.07713 16.4925 7.16642 16.4609L6.49993 14.5752C6.11867 14.71 5.77261 14.9497 5.3674 15.2198L6.4768 16.8839ZM8.49926 14.5752C7.85238 14.3466 7.14681 14.3466 6.49993 14.5752L7.16642 16.4609C7.38205 16.3847 7.61714 16.3847 7.83277 16.4609L8.49926 14.5752ZM12.5 13.6851C12.5 14.3795 12.4995 14.8513 12.4766 15.2035C12.4531 15.5646 12.4108 15.6769 12.398 15.7031L14.1938 16.5833C14.3851 16.1931 14.4448 15.7569 14.4724 15.3333C14.5005 14.9008 14.5 14.3518 14.5 13.6851H12.5ZM8.52262 16.884C9.07748 17.2539 9.53415 17.5588 9.90991 17.7753C10.2779 17.9874 10.674 18.1795 11.1047 18.2368L11.3684 16.2542C11.3393 16.2504 11.2221 16.2232 10.9085 16.0425C10.6027 15.8662 10.2096 15.6049 9.63202 15.2199L8.52262 16.884ZM12.398 15.7031C12.2087 16.0892 11.7943 16.3109 11.3684 16.2542L11.1047 18.2368C12.383 18.4069 13.6264 17.741 14.1938 16.5833L12.398 15.7031ZM14.5 4.19995C14.5 3.6565 14.5008 3.1887 14.4696 2.80511C14.4373 2.40983 14.3661 2.01653 14.1732 1.63805L12.3912 2.54603C12.4164 2.59537 12.454 2.69598 12.4762 2.96767C12.4993 3.25105 12.5 3.6233 12.5 4.19995H14.5ZM10.3002 2C10.8768 2 11.2489 2.00078 11.5321 2.02393C11.8036 2.04611 11.9043 2.08377 11.9538 2.10899L12.8618 0.32698C12.4835 0.134215 12.0904 0.0628801 11.6951 0.0305714C11.3115 -0.000778198 10.8437 0 10.3002 0V2ZM14.1732 1.63805C13.8854 1.07315 13.4259 0.614392 12.8618 0.32698L11.9538 2.10899C12.1424 2.20508 12.2956 2.35828 12.3912 2.54603L14.1732 1.63805Z"/>
</svg>
