<svg width="21" height="18" viewBox="0 0 21 18" fill="none" xmlns="http://www.w3.org/2000/svg">
<path d="M15.375 4.875H1.875C1.67609 4.875 1.48532 4.95402 1.34467 5.09467C1.20402 5.23532 1.125 5.42609 1.125 5.625V16.125C1.125 16.539 1.461 16.875 1.875 16.875H15.375C15.5739 16.875 15.7647 16.796 15.9053 16.6553C16.046 16.5147 16.125 16.3239 16.125 16.125V5.625C16.125 5.42609 16.046 5.23532 15.9053 5.09467C15.7647 4.95402 15.5739 4.875 15.375 4.875Z" stroke-width="2" stroke-linecap="round" stroke-linejoin="round"/>
<path d="M4.5 1.125H19.125C19.3239 1.125 19.5147 1.20402 19.6553 1.34467C19.796 1.48532 19.875 1.67609 19.875 1.875V13.5" stroke-width="2" stroke-linecap="round" stroke-linejoin="round"/>
</svg>
