<svg xmlns="http://www.w3.org/2000/svg" width="22" height="22" fill="none" viewBox="0 0 22 22"><path stroke-linecap="round" stroke-linejoin="round" stroke-width="2" d="M13.25 18.4991V13.9991C13.25 13.8002 13.171 13.6094 13.0303 13.4688C12.8897 13.3281 12.6989 13.2491 12.5 13.2491H9.5C9.30109 13.2491 9.11032 13.3281 8.96967 13.4688C8.82902 13.6094 8.75 13.8002 8.75 13.9991V18.4991C8.75 18.698 8.67098 18.8888 8.53033 19.0295C8.38968 19.1701 8.19891 19.2491 8 19.2491H3.5C3.30109 19.2491 3.11032 19.1701 2.96967 19.0295C2.82902 18.8888 2.75 18.698 2.75 18.4991V9.82713C2.75172 9.72333 2.7742 9.62094 2.8161 9.52596C2.85801 9.43099 2.91849 9.34536 2.994 9.27413L10.494 2.45813C10.6322 2.33178 10.8127 2.26172 11 2.26172C11.1873 2.26172 11.3678 2.33178 11.506 2.45813L19.006 9.27413C19.0816 9.34533 19.1421 9.43095 19.184 9.52593C19.2259 9.62091 19.2483 9.72332 19.25 9.82713V18.5001C19.25 18.699 19.171 18.8898 19.0303 19.0305C18.8897 19.1711 18.6989 19.2501 18.5 19.2501H14C13.8011 19.2501 13.6103 19.1711 13.4697 19.0305C13.329 18.8898 13.25 18.699 13.25 18.5001V18.4991Z"/></svg>