<svg width="22" height="20" viewBox="0 0 22 20" fill="none" xmlns="http://www.w3.org/2000/svg">
<path d="M11 18.25C11 18.25 1.625 13 1.625 6.62501C1.625 5.49803 2.01546 4.40585 2.72996 3.53431C3.44445 2.66277 4.43884 2.0657 5.54393 1.84468C6.64903 1.62366 7.79657 1.79235 8.79131 2.32204C9.78605 2.85174 10.5665 3.70972 11 4.75001V4.75001C11.4335 3.70972 12.2139 2.85174 13.2087 2.32204C14.2034 1.79235 15.351 1.62366 16.4561 1.84468C17.5612 2.0657 18.5555 2.66277 19.27 3.53431C19.9845 4.40585 20.375 5.49803 20.375 6.62501C20.375 13 11 18.25 11 18.25Z" stroke-width="2" stroke-linecap="round" stroke-linejoin="round"/>
</svg>
