<svg xmlns="http://www.w3.org/2000/svg" width="20" height="20" fill="none" viewBox="0 0 20 20"><path stroke-linecap="round" stroke-linejoin="round" stroke-width="2" d="M6.69001 18.2519H2.50001C2.3011 18.2519 2.11033 18.1728 1.96968 18.0322C1.82903 17.8915 1.75001 17.7008 1.75001 17.5019V13.3119C1.74955 13.2143 1.7684 13.1176 1.80547 13.0273C1.84254 12.937 1.8971 12.855 1.96601 12.7859L13.216 1.53587C13.2858 1.46512 13.3689 1.40894 13.4606 1.37059C13.5523 1.33225 13.6506 1.3125 13.75 1.3125C13.8494 1.3125 13.9478 1.33225 14.0394 1.37059C14.1311 1.40894 14.2142 1.46512 14.284 1.53587L18.466 5.71687C18.5371 5.78667 18.5935 5.86993 18.632 5.96179C18.6705 6.05365 18.6904 6.15226 18.6904 6.25187C18.6904 6.35147 18.6705 6.45008 18.632 6.54194C18.5935 6.6338 18.5371 6.71706 18.466 6.78687L7.21601 18.0369C7.14694 18.1055 7.06502 18.1598 6.97493 18.1967C6.88484 18.2336 6.78836 18.2523 6.69101 18.2519V18.2519H6.69001Z"/><path stroke-linecap="round" stroke-linejoin="round" stroke-width="2" d="M10.75 4L16 9.25"/><path stroke-linecap="round" stroke-linejoin="round" stroke-width="2" d="M13.375 16.75L17.125 13L16 9.25"/><path stroke-linecap="round" stroke-linejoin="round" stroke-width="2" d="M2.125 12.625L7.375 17.875"/></svg>