<svg viewBox="0 0 16 20" fill="none" xmlns="http://www.w3.org/2000/svg">
<path d="M0 17.5C0 18.0522 0.447715 18.5 1 18.5C1.55228 18.5 2 18.0522 2 17.5H0ZM15 16C15 15.4477 14.5523 15 14 15C13.4477 15 13 15.4477 13 16H15ZM13.4544 18.891L13.0004 18L13.4544 18.891ZM13.8906 18.454L12.9996 18L13.8906 18.454ZM14.8906 15.454L13.9996 15L14.8906 15.454ZM14.4544 15.891L14.0004 15L14.4544 15.891ZM14.4544 1.10899L14.9084 0.217987L14.4544 1.10899ZM14.8906 1.54602L13.9996 2.00001V2.00001L14.8906 1.54602ZM1.21799 2.09204L2.10899 2.54603L1.21799 2.09204ZM2.0918 1.21799L2.54579 2.10899L2.0918 1.21799ZM2 17.5V4.19995H0V17.5H2ZM4.2002 2H13.4002V0H4.2002V2ZM14 2.59998V14.4H16V2.59998H14ZM13.4 15H3.25V17H13.4V15ZM1.75 20H12.4V18H1.75V20ZM15 17.4V16H13V17.4H15ZM12.4 20C12.6636 20 12.9214 20.0008 13.1384 19.983C13.3669 19.9644 13.6369 19.9203 13.9084 19.782L13.0004 18C13.058 17.9706 13.0807 17.9811 12.9756 17.9897C12.8589 17.9992 12.6965 18 12.4 18V20ZM13 17.4C13 17.6962 12.9991 17.8585 12.9896 17.9748C12.9809 18.0795 12.9705 18.0571 12.9996 18L14.7816 18.908C14.9197 18.637 14.964 18.3676 14.9828 18.1388C15.0007 17.9216 15 17.6639 15 17.4H13ZM13.9084 19.782C14.2862 19.5895 14.5907 19.2828 14.7816 18.908L12.9996 18L13.0004 18L13.9084 19.782ZM0 18.25C0 19.2165 0.783502 20 1.75 20V18C1.88807 18 2 18.1119 2 18.25H0ZM3.25 15C1.45507 15 0 16.4551 0 18.25H2C2 17.5596 2.55964 17 3.25 17V15ZM14 14.4C14 14.6961 13.9991 14.8584 13.9896 14.9748C13.9809 15.0796 13.9705 15.0571 13.9996 15L15.7816 15.908C15.9197 15.637 15.964 15.3676 15.9828 15.1388C16.0007 14.9216 16 14.6639 16 14.4H14ZM13.4 17C13.6636 17 13.9214 17.0008 14.1384 16.983C14.3669 16.9644 14.6369 16.9203 14.9084 16.782L14.0004 15C14.058 14.9706 14.0807 14.9811 13.9756 14.9897C13.8589 14.9992 13.6965 15 13.4 15V17ZM13.9996 15L14.0004 15L14.9084 16.782C15.2862 16.5895 15.5907 16.2828 15.7816 15.908L13.9996 15ZM13.4002 2C13.6967 2 13.859 2.00078 13.9757 2.01031C14.0807 2.01888 14.058 2.02933 14.0004 2L14.9084 0.217987C14.6369 0.0796615 14.3671 0.0356124 14.1385 0.0169433C13.9215 -0.000777125 13.6637 0 13.4002 0V2ZM16 2.59998C16 2.33609 16.0007 2.07834 15.9828 1.86119C15.964 1.6324 15.9197 1.36304 15.7816 1.09203L13.9996 2.00001C13.9705 1.94291 13.9809 1.9205 13.9896 2.0252C13.9991 2.14154 14 2.30381 14 2.59998H16ZM14.0004 2L13.9996 2.00001L15.7816 1.09203C15.5907 0.717371 15.2864 0.410579 14.9084 0.217987L14.0004 2ZM2 4.19995C2 3.6234 2.00078 3.25114 2.02393 2.96783C2.04612 2.6962 2.0838 2.59549 2.10899 2.54603L0.32698 1.63805C0.134191 2.01642 0.0628722 2.40961 0.0305698 2.80495C-0.000777841 3.18861 0 3.6564 0 4.19995H2ZM4.2002 0C3.65663 0 3.18874 -0.000777125 2.80498 0.0305674C2.40962 0.0628601 2.01624 0.134156 1.63781 0.32698L2.54579 2.10899C2.59517 2.08383 2.69595 2.04613 2.9678 2.02393C3.25126 2.00078 3.62365 2 4.2002 2V0ZM2.10899 2.54603C2.205 2.35761 2.35788 2.20474 2.54579 2.10899L1.63781 0.32698C1.07306 0.614732 0.614469 1.07382 0.32698 1.63805L2.10899 2.54603Z"/>
</svg>
