<svg xmlns="http://www.w3.org/2000/svg" width="21" height="20" fill="none" viewBox="0 0 21 20"><path stroke-linecap="round" stroke-linejoin="round" stroke-width="2" d="M10.5 13C12.0913 13 13.6174 12.3679 14.7426 11.2426C15.8679 10.1174 16.5 8.5913 16.5 7C16.5 5.4087 15.8679 3.88258 14.7426 2.75736C13.6174 1.63214 12.0913 1 10.5 1C8.9087 1 7.38258 1.63214 6.25736 2.75736C5.13214 3.88258 4.5 5.4087 4.5 7C4.5 8.5913 5.13214 10.1174 6.25736 11.2426C7.38258 12.3679 8.9087 13 10.5 13V13Z"/><path stroke-linecap="round" stroke-linejoin="round" stroke-width="2" d="M1.40625 18.2498C2.32772 16.6533 3.65326 15.3274 5.24961 14.4056C6.84597 13.4838 8.65687 12.9985 10.5002 12.9985C12.3436 12.9985 14.1545 13.4838 15.7509 14.4056C17.3472 15.3274 18.6728 16.6533 19.5942 18.2498"/></svg>